# xmcd
#
# Track frame offsets:
#	150
#	17990
#	36785
#	57303
#	75864
#	90549
#	112015
#	126489
#	147420
#	162197
#	175660
#	191854
#	210212
#	223768
#	261195
#
# Disc length: 3510 seconds
#
# Revision: 1
# Processed by: cddbd v1.5.1PL2 Copyright (c) Steve Scherf et al.
# Submitted via: audiograbber 1.83.01
#
DISCID=d30db40f
DTITLE=Various Artist - CMA Awards 2002
DYEAR=2002
DGENRE=Country
TTITLE0=Kenny Chesney - Young
TTITLE1=Dixie Chicks - Long time gone
TTITLE2=Willie Nelson and Lee Ann Womack - Mendocino county line
TTITLE3=Rascal Flatts - I'm movin' on
TTITLE4=Brad Paisley - I'm gonna miss her (the fishin' song)
TTITLE5=Travis Triit - Modern day Bonnie and Clyde
TTITLE6=Alison Krauss and Union Station - The lucky one
TTITLE7=Martina McBride  - Blessed
TTITLE8=Toby Keith - Courtesy of the red, white and blue (the angry American)
TTITLE9=George Strait - She'll leave you with a smile
TTITLE10=Nickel Creek - This side
TTITLE11=Darryl Worley - I miss my friend
TTITLE12=Brooks and Dunn - My heart is lost to you
TTITLE13=Alan Jackson - Where were you when the world stopped turning (live)
TTITLE14=data - Data Track
EXTD=
EXTT0=
EXTT1=
EXTT2=
EXTT3=
EXTT4=
EXTT5=
EXTT6=
EXTT7=
EXTT8=
EXTT9=
EXTT10=
EXTT11=
EXTT12=
EXTT13=
EXTT14=
PLAYORDER=
